<svg xmlns="http://www.w3.org/2000/svg" width="31" height="79"><defs><clipPath id="a"><path d="M0 0h31v79H0z"/></clipPath></defs><g clip-path="url(#a)"><path class="cls-1" fill="#fefefe" d="M2.4 9.29h26.44c1.32 0 2.4 1.08 2.4 2.4v31.25c0 .37-.09.74-.25 1.07-.21.43-.6 1.14-1.14 2.04-.9 1.5-1.91 2.99-3.04 4.4-3.42 4.28-7.11 6.91-11.19 6.91-4.08 0-7.77-2.64-11.19-6.91-1.12-1.4-2.14-2.9-3.04-4.4-.54-.9-.93-1.61-1.14-2.04-.17-.34-.25-.7-.25-1.07V11.69a2.4 2.4 0 0 1 2.4-2.4zm2.41 4.81v14.42h8.41V14.1zm0 28.22s.43.8.71 1.27a35.55 35.55 0 0 0 2.67 3.87c1.71 2.13 3.42 3.67 5.03 4.47v-18.6H4.81zm18.25 5.13c.98-1.22 1.88-2.55 2.67-3.87.27-.46.71-1.27.71-1.27v-8.99h-8.41v18.6c1.61-.8 3.33-2.34 5.03-4.47zm3.38-33.35h-8.41v14.42h8.41zm-8.41-9.62a2.4 2.4 0 0 1-4.8 0v-2.4a2.4 2.4 0 0 1 4.8 0zm0 72.12a2.4 2.4 0 0 1-4.8 0V62.18a2.4 2.4 0 0 1 4.8 0z"/></g></svg>