<svg height="64" width="64" xmlns="http://www.w3.org/2000/svg">
    <circle id="pr" cx="32" cy="32" fill="currentColor" r="32"/>
    <path d="M28.962 25.343c-.417-4.794-5.418-7.146-5.63-7.242-.199-.094-.421-.122-.635-.085-5.774.958-6.642 4.318-6.677 4.458-.048.196-.039.399.022.589 6.886 21.366 21.198 25.327 25.903 26.63.362.1.661.181.888.255.11.037.223.052.336.052.155 0 .31-.033.452-.098.144-.065 3.544-1.667 4.375-6.891.037-.227 0-.463-.105-.668-.074-.144-1.853-3.528-6.784-4.724-.345-.089-.698.002-.964.229-1.556 1.329-3.705 2.745-4.632 2.891-6.217-3.04-9.688-8.872-9.819-9.978-.076-.622 1.348-2.806 2.987-4.582.207-.225.312-.53.283-.836z" fill="#231F20" opacity=".2"/>
    <path d="M28.962 23.343c-.417-4.794-5.418-7.146-5.63-7.242-.199-.094-.421-.122-.635-.085-5.774.958-6.642 4.318-6.677 4.458-.048.196-.039.399.022.589 6.886 21.366 21.198 25.327 25.903 26.63.362.1.661.181.888.255.11.037.223.052.336.052.155 0 .31-.033.452-.098.144-.065 3.544-1.667 4.375-6.891.037-.227 0-.463-.105-.668-.074-.144-1.853-3.528-6.784-4.724-.345-.089-.698.002-.964.229-1.556 1.329-3.705 2.745-4.632 2.891-6.217-3.04-9.688-8.872-9.819-9.978-.076-.622 1.348-2.806 2.987-4.582.207-.225.312-.53.283-.836z" fill="#fff"/>
</svg>