<?xml version="1.0" encoding="utf-8"?><svg xmlns="http://www.w3.org/2000/svg" xmlns:xlink="http://www.w3.org/1999/xlink"><symbol viewBox="0 0 64 64" id="phone" xmlns="http://www.w3.org/2000/svg"><circle cx="32" cy="32" fill="currentColor" r="32"/><path d="M28.962 25.343c-.417-4.794-5.418-7.146-5.63-7.242a1.063 1.063 0 0 0-.635-.085c-5.774.958-6.642 4.318-6.677 4.458-.048.196-.039.399.022.589 6.886 21.366 21.198 25.327 25.903 26.63.362.1.661.181.888.255a1.088 1.088 0 0 0 .788-.046c.144-.065 3.544-1.667 4.375-6.891.037-.227 0-.463-.105-.668-.074-.144-1.853-3.528-6.784-4.724a1.066 1.066 0 0 0-.964.229c-1.556 1.329-3.705 2.745-4.632 2.891-6.217-3.04-9.688-8.872-9.819-9.978-.076-.622 1.348-2.806 2.987-4.582.207-.225.312-.53.283-.836z" fill="#231F20" opacity=".2"/><path d="M28.962 23.343c-.417-4.794-5.418-7.146-5.63-7.242a1.063 1.063 0 0 0-.635-.085c-5.774.958-6.642 4.318-6.677 4.458-.048.196-.039.399.022.589 6.886 21.366 21.198 25.327 25.903 26.63.362.1.661.181.888.255a1.088 1.088 0 0 0 .788-.046c.144-.065 3.544-1.667 4.375-6.891.037-.227 0-.463-.105-.668-.074-.144-1.853-3.528-6.784-4.724a1.066 1.066 0 0 0-.964.229c-1.556 1.329-3.705 2.745-4.632 2.891-6.217-3.04-9.688-8.872-9.819-9.978-.076-.622 1.348-2.806 2.987-4.582.207-.225.312-.53.283-.836z" fill="#fff"/></symbol><symbol viewBox="0 0 8 5" id="sort-arrow" xmlns="http://www.w3.org/2000/svg"><rect width="100%" height="100%" fill="none"/><path fill="currentColor" d="M4 3.2L.9 0 0 .9l3.1 3.2.9.9.9-.9L8 .9 7.1 0 4 3.2z"/></symbol><symbol viewBox="0 0 19 19" id="star" xmlns="http://www.w3.org/2000/svg"><path d="M6.92 6.34c-9.13.4-8.76-.75-1.63 4.92-2.41 8.8-3.4 8.07 4.23 3.06 7.55 4.96 6.61 5.65 4.2-3.06 7.1-5.65 7.48-4.52-1.61-4.92-3.19-8.45-2.03-8.45-5.19 0z" fill="currentColor"/></symbol></svg>